<svg xmlns="http://www.w3.org/2000/svg" xmlns:xlink="http://www.w3.org/1999/xlink" viewBox="0,0,256,256" width="32px" height="32px"><g fill="#339af0" fill-rule="nonzero" stroke="none" stroke-width="1" stroke-linecap="butt" stroke-linejoin="miter" stroke-miterlimit="10" stroke-dasharray="" stroke-dashoffset="0" font-family="none" font-weight="none" font-size="none" text-anchor="none" style="mix-blend-mode: normal"><g transform="scale(10.66667,10.66667)"><path d="M18,3h-12c-1.657,0 -3,1.343 -3,3v1h18v-1c0,-1.657 -1.343,-3 -3,-3z"></path><circle cx="10" cy="18" r="1"></circle><circle cx="6" cy="18" r="1"></circle><circle cx="6" cy="14" r="1"></circle><circle cx="10" cy="14" r="1"></circle><circle cx="14" cy="14" r="1"></circle><circle cx="18" cy="10" r="1"></circle><circle cx="14" cy="10" r="1"></circle><circle cx="10" cy="10" r="1"></circle><path d="M21,14.988v-7.988h-18v11c0,1.657 1.343,3 3,3h8.988c0.738,1.476 2.249,2.5 4.012,2.5c2.485,0 4.5,-2.015 4.5,-4.5c0,-1.763 -1.024,-3.273 -2.5,-4.012z" opacity="0.35"></path><path d="M19,14c-2.76,0 -5,2.24 -5,5c0,2.76 2.24,5 5,5c2.76,0 5,-2.24 5,-5c0,-2.76 -2.24,-5 -5,-5zM19.93,21.7c0,0.43 -0.34,0.77 -0.77,0.77c-0.43,0 -0.77,-0.34 -0.77,-0.77v-4.35l-0.41,0.31c-0.34,0.26 -0.81,0.16 -1.02,-0.2c-0.06,-0.11 -0.09,-0.23 -0.09,-0.35c0,-0.21 0.1,-0.42 0.28,-0.55l1.13,-0.83c0.18,-0.13 0.4,-0.2 0.62,-0.2c0.57,0 1.03,0.46 1.03,1.03z"></path></g></g></svg>