<svg xmlns="http://www.w3.org/2000/svg" xmlns:xlink="http://www.w3.org/1999/xlink" viewBox="0,0,256,256" width="32px" height="32px"><g fill="#339af0" fill-rule="nonzero" stroke="none" stroke-width="1" stroke-linecap="butt" stroke-linejoin="miter" stroke-miterlimit="10" stroke-dasharray="" stroke-dashoffset="0" font-family="none" font-weight="none" font-size="none" text-anchor="none" style="mix-blend-mode: normal"><g transform="scale(10.66667,10.66667)"><path d="M18,21h-12c-1.657,0 -3,-1.343 -3,-3v-11h18v11c0,1.657 -1.343,3 -3,3z" opacity="0.35"></path><path d="M18,3h-12c-1.657,0 -3,1.343 -3,3v1h18v-1c0,-1.657 -1.343,-3 -3,-3z"></path><circle cx="14" cy="18" r="1"></circle><circle cx="10" cy="18" r="1"></circle><circle cx="6" cy="18" r="1"></circle><circle cx="6" cy="14" r="1"></circle><circle cx="10" cy="14" r="1"></circle><circle cx="14" cy="14" r="1"></circle><circle cx="18" cy="14" r="1"></circle><circle cx="18" cy="10" r="1"></circle><circle cx="14" cy="10" r="1"></circle><circle cx="10" cy="10" r="1"></circle></g></g></svg>