<svg xmlns="http://www.w3.org/2000/svg" xmlns:xlink="http://www.w3.org/1999/xlink" viewBox="0,0,256,256" width="32px" height="32px"><g fill="#339af0" fill-rule="nonzero" stroke="none" stroke-width="1" stroke-linecap="butt" stroke-linejoin="miter" stroke-miterlimit="10" stroke-dasharray="" stroke-dashoffset="0" font-family="none" font-weight="none" font-size="none" text-anchor="none" style="mix-blend-mode: normal"><g transform="scale(10.66667,10.66667)"><path d="M18,21h-12c-1.657,0 -3,-1.343 -3,-3v-12h18v12c0,1.657 -1.343,3 -3,3z" opacity="0.35"></path><path d="M18,3h-12c-1.657,0 -3,1.343 -3,3v1h18v-1c0,-1.657 -1.343,-3 -3,-3z"></path><path d="M18.025,17h-0.004c-0.459,0 -0.853,-0.348 -0.936,-0.828l-0.667,-3.869h-0.018l-0.661,3.867c-0.082,0.481 -0.476,0.83 -0.936,0.83v0c-0.458,0 -0.85,-0.346 -0.935,-0.823l-0.938,-5.3c-0.081,-0.456 0.248,-0.877 0.685,-0.877h0.076c0.346,0 0.639,0.269 0.69,0.632l0.592,4.242h0.037l0.605,-4.115c0.066,-0.437 0.42,-0.759 0.837,-0.759v0c0.415,0 0.768,0.319 0.835,0.753l0.631,4.121h0.027l0.584,-4.241c0.05,-0.363 0.344,-0.633 0.691,-0.633v0c0.437,0 0.767,0.422 0.685,0.878l-0.945,5.301c-0.085,0.476 -0.478,0.821 -0.935,0.821z"></path><path d="M10.615,16.224v-4.384l-0.417,0.314c-0.335,0.253 -0.815,0.154 -1.024,-0.21v0c-0.176,-0.308 -0.093,-0.698 0.193,-0.908l1.14,-0.835c0.18,-0.13 0.395,-0.201 0.617,-0.201v0c0.576,0 1.043,0.467 1.043,1.043v5.18c0,0.429 -0.348,0.776 -0.776,0.776v0c-0.429,0.001 -0.776,-0.347 -0.776,-0.775z"></path><path d="M8.306,13.224h-3.447c-0.429,0 -0.776,0.348 -0.776,0.776c0,0.428 0.348,0.776 0.776,0.776h3.448c0.429,0 0.776,-0.348 0.776,-0.776c0,-0.428 -0.348,-0.776 -0.777,-0.776z"></path><path d="M5.806,12.276v3.448c0,0.429 0.348,0.776 0.776,0.776c0.428,0 0.776,-0.348 0.776,-0.776v-3.448c0,-0.429 -0.348,-0.776 -0.776,-0.776c-0.428,0 -0.776,0.348 -0.776,0.776z"></path></g></g></svg>