<svg xmlns="http://www.w3.org/2000/svg" xmlns:xlink="http://www.w3.org/1999/xlink" viewBox="0,0,256,256" width="32px" height="32px"><g fill="#339af0" fill-rule="nonzero" stroke="none" stroke-width="1" stroke-linecap="butt" stroke-linejoin="miter" stroke-miterlimit="10" stroke-dasharray="" stroke-dashoffset="0" font-family="none" font-weight="none" font-size="none" text-anchor="none" style="mix-blend-mode: normal"><g transform="scale(10.66667,10.66667)"><path d="M18,21h-12c-1.657,0 -3,-1.343 -3,-3v-12h18v12c0,1.657 -1.343,3 -3,3z" opacity="0.35"></path><path d="M18,3h-12c-1.657,0 -3,1.343 -3,3v1h18v-1c0,-1.657 -1.343,-3 -3,-3z"></path><path d="M17.052,14.479v1.745c0,0.429 -0.348,0.776 -0.776,0.776v0c-0.429,0 -0.776,-0.348 -0.776,-0.776v-1.745l-1.361,-3.445c-0.197,-0.496 0.169,-1.034 0.703,-1.034h0.03c0.337,0 0.633,0.222 0.727,0.546l0.682,2.351h0.02l0.69,-2.353c0.095,-0.323 0.39,-0.544 0.726,-0.544v0c0.534,0 0.9,0.539 0.703,1.036z"></path><path d="M11.532,16.224v-4.384l-0.417,0.314c-0.335,0.253 -0.815,0.154 -1.024,-0.21v0c-0.176,-0.308 -0.093,-0.698 0.193,-0.908l1.14,-0.835c0.18,-0.13 0.396,-0.201 0.618,-0.201v0c0.576,0 1.043,0.467 1.043,1.043v5.18c0,0.429 -0.348,0.776 -0.776,0.776v0c-0.429,0.001 -0.777,-0.347 -0.777,-0.775z"></path><path d="M9.224,13.224h-3.448c-0.428,0 -0.776,0.347 -0.776,0.776c0,0.429 0.348,0.776 0.776,0.776h3.448c0.428,0 0.776,-0.347 0.776,-0.776c0,-0.429 -0.348,-0.776 -0.776,-0.776z"></path><path d="M6.724,12.276v3.448c0,0.429 0.348,0.776 0.776,0.776c0.428,0 0.776,-0.348 0.776,-0.776v-3.448c0,-0.429 -0.348,-0.776 -0.776,-0.776c-0.428,0 -0.776,0.348 -0.776,0.776z"></path></g></g></svg>